<svg width="280" height="193" viewBox="0 0 280 193" fill="none" xmlns="http://www.w3.org/2000/svg">
<g opacity="0.3">
<path opacity="0.7" d="M228.297 90.619H253.284C255.991 90.619 258.186 92.8134 258.186 95.5204V120.508C258.186 123.215 255.991 125.409 253.284 125.409H228.297C225.59 125.409 223.395 123.215 223.395 120.508V95.5204C223.395 92.8134 225.59 90.619 228.297 90.619Z" stroke="#F46E00" stroke-width="3.84423"/>
<path opacity="0.2" d="M223.491 27.6696H254.341C257.95 27.6696 260.876 30.5955 260.876 34.2048V65.0547C260.876 68.664 257.95 71.5899 254.341 71.5899H223.491C219.882 71.5899 216.956 68.664 216.956 65.0547V34.2048C216.956 30.5955 219.882 27.6696 223.491 27.6696Z" stroke="#F46E00" stroke-width="3.84423"/>
<path opacity="0.9" d="M121.751 141.007H121.751H156.445C158.484 141.007 160.44 141.817 161.881 143.259C163.323 144.701 164.133 146.656 164.133 148.695V183.39C164.133 185.429 163.323 187.384 161.881 188.826C160.44 190.268 158.484 191.078 156.445 191.078H121.751C119.712 191.078 117.756 190.268 116.314 188.826C114.872 187.384 114.062 185.429 114.062 183.39V148.609C114.085 146.587 114.904 144.655 116.341 143.232C117.781 141.806 119.725 141.007 121.751 141.007Z" stroke="#F46E00" stroke-width="3.84423"/>
<path opacity="0.5" d="M121.694 94.4943H140.53C142.282 94.4943 143.702 95.9142 143.702 97.6657V116.502C143.702 118.254 142.282 119.674 140.53 119.674H121.694C119.942 119.674 118.522 118.254 118.522 116.502V97.6657C118.522 95.9142 119.942 94.4943 121.694 94.4943Z" stroke="#F46E00" stroke-width="3.84423"/>
<path opacity="0.5" d="M255.361 104.266L255.38 104.266H255.398H274.62C275.461 104.266 276.267 104.601 276.862 105.195C277.457 105.79 277.791 106.597 277.791 107.438V126.659C277.791 127.5 277.457 128.307 276.862 128.902C276.267 129.496 275.461 129.831 274.62 129.831H255.398C254.532 129.831 253.701 129.486 253.088 128.874C252.475 128.261 252.131 127.43 252.131 126.563V107.63V107.594L252.129 107.557C252.113 107.126 252.185 106.695 252.341 106.293C252.497 105.89 252.733 105.523 253.036 105.215C253.338 104.907 253.7 104.664 254.1 104.501C254.5 104.337 254.929 104.258 255.361 104.266Z" stroke="#F46E00" stroke-width="3.84423"/>
<path opacity="0.3" d="M168.121 49.8931H193.3C196.06 49.8931 198.298 52.1306 198.298 54.8906V80.0703C198.298 82.8303 196.06 85.0678 193.3 85.0678H168.121C165.361 85.0678 163.123 82.8303 163.123 80.0703V54.8906C163.123 52.1306 165.361 49.8931 168.121 49.8931Z" stroke="#F46E00" stroke-width="3.84423"/>
<path opacity="0.2" d="M4.13254 102.453H19.4133C21.1649 102.453 22.5848 103.873 22.5848 105.625V120.906C22.5848 122.657 21.1649 124.077 19.4133 124.077H4.13254C2.38098 124.077 0.961056 122.657 0.961056 120.906V105.625C0.961056 103.873 2.38098 102.453 4.13254 102.453Z" stroke="#F46E00" stroke-width="1.92211"/>
<path opacity="0.4" d="M198.888 2.10607H221.281C223.563 2.10607 225.413 3.95628 225.413 6.23862V28.6312C225.413 30.9136 223.563 32.7638 221.281 32.7638H198.888C196.606 32.7638 194.756 30.9136 194.756 28.6312V6.23862C194.756 3.95628 196.606 2.10607 198.888 2.10607Z" stroke="#F46E00" stroke-width="3.84423"/>
<path opacity="0.4" d="M182.838 133.097H209.363C212.283 133.097 214.649 135.464 214.649 138.383V164.908C214.649 167.828 212.283 170.194 209.363 170.194H182.838C179.919 170.194 177.552 167.828 177.552 164.908V138.383C177.552 135.464 179.919 133.097 182.838 133.097Z" stroke="#F46E00" stroke-width="3.84423"/>
<path opacity="0.7" d="M50.5731 123.487L50.585 123.487H50.597H79.4287C80.9835 123.487 82.4746 124.105 83.574 125.204C84.6735 126.304 85.2911 127.795 85.2911 129.35V158.181C85.2911 159.736 84.6735 161.227 83.574 162.327C82.4746 163.426 80.9835 164.044 79.4287 164.044H50.597C49.0167 164.044 47.5011 163.416 46.3836 162.299C45.2662 161.181 44.6384 159.666 44.6384 158.085V129.266C44.6493 128.5 44.8102 127.743 45.1121 127.039C45.4155 126.332 45.8553 125.691 46.4064 125.153C46.9575 124.615 47.6091 124.191 48.3241 123.906C49.039 123.62 49.8032 123.478 50.5731 123.487Z" stroke="#F46E00" stroke-width="3.84423"/>
</g>
</svg>
