<svg width="215" height="149" viewBox="0 0 215 149" fill="none" xmlns="http://www.w3.org/2000/svg">
<g opacity="0.3">
<path opacity="0.7" d="M175.479 69.5125H194.685C196.766 69.5125 198.453 71.1992 198.453 73.2799V92.4864C198.453 94.5671 196.766 96.2538 194.685 96.2538H175.479C173.398 96.2538 171.711 94.5671 171.711 92.4864V73.2799C171.711 71.1992 173.398 69.5125 175.479 69.5125Z" stroke="#F46E00" stroke-width="2.95484"/>
<path opacity="0.2" d="M171.785 21.1267H195.497C198.272 21.1267 200.521 23.3757 200.521 26.15V49.8626C200.521 52.6368 198.272 54.8858 195.497 54.8858H171.785C169.011 54.8858 166.762 52.6368 166.762 49.8626V26.15C166.762 23.3757 169.011 21.1267 171.785 21.1267Z" stroke="#F46E00" stroke-width="2.95484"/>
<path opacity="0.9" d="M93.5828 108.243H93.5829H120.25C121.818 108.243 123.321 108.866 124.429 109.974L125.45 108.953L124.429 109.974C125.537 111.082 126.16 112.585 126.16 114.153V140.82C126.16 142.387 125.537 143.891 124.429 144.999C123.321 146.107 121.818 146.73 120.25 146.73H93.5829C92.0156 146.73 90.5124 146.107 89.4041 144.999C88.2958 143.891 87.6732 142.387 87.6732 140.82V114.087C87.6906 112.532 88.3199 111.047 89.4248 109.953C90.5314 108.857 92.0257 108.243 93.5828 108.243Z" stroke="#F46E00" stroke-width="2.95484"/>
<path opacity="0.5" d="M93.5392 72.4912H108.018C109.364 72.4912 110.456 73.5826 110.456 74.9289V89.4076C110.456 90.754 109.364 91.8454 108.018 91.8454H93.5392C92.1929 91.8454 91.1014 90.754 91.1014 89.4076V74.9289C91.1014 73.5826 92.1929 72.4912 93.5392 72.4912Z" stroke="#F46E00" stroke-width="2.95484"/>
<path opacity="0.5" d="M196.282 80.0022L196.296 80.0025H196.311H211.085C211.731 80.0025 212.351 80.2594 212.809 80.7165C213.266 81.1737 213.523 81.7938 213.523 82.4403V97.2145C213.523 97.861 213.266 98.4811 212.809 98.9382C212.351 99.3954 211.731 99.6522 211.085 99.6522H196.311C195.645 99.6522 195.006 99.3876 194.535 98.9166L193.505 99.9464L194.535 98.9166C194.064 98.4456 193.799 97.8068 193.799 97.1406V82.588V82.56L193.798 82.532C193.785 82.2003 193.841 81.8695 193.96 81.5599C194.08 81.2504 194.262 80.9685 194.495 80.7317C194.727 80.4948 195.006 80.3079 195.313 80.1825C195.62 80.0571 195.95 79.9957 196.282 80.0022Z" stroke="#F46E00" stroke-width="2.95484"/>
<path opacity="0.3" d="M129.225 38.2087H148.58C150.701 38.2087 152.421 39.9285 152.421 42.05V61.4042C152.421 63.5257 150.701 65.2455 148.58 65.2455H129.225C127.104 65.2455 125.384 63.5257 125.384 61.4042V42.05C125.384 39.9285 127.104 38.2087 129.225 38.2087Z" stroke="#F46E00" stroke-width="2.95484"/>
<path opacity="0.2" d="M3.17645 78.609H14.922C16.2683 78.609 17.3597 79.7004 17.3597 81.0467V92.7922C17.3597 94.1385 16.2683 95.23 14.922 95.23H3.17645C1.83012 95.23 0.738711 94.1385 0.738711 92.7922V81.0467C0.738711 79.7004 1.83012 78.609 3.17645 78.609Z" stroke="#F46E00" stroke-width="1.47742"/>
<path opacity="0.4" d="M152.875 1.47742H170.087C171.841 1.47742 173.263 2.89957 173.263 4.65388V21.8659C173.263 23.6202 171.841 25.0423 170.087 25.0423H152.875C151.12 25.0423 149.698 23.6202 149.698 21.8659V4.65388C149.698 2.89957 151.12 1.47742 152.875 1.47742Z" stroke="#F46E00" stroke-width="2.95484"/>
<path opacity="0.4" d="M140.538 102.163H160.926C163.17 102.163 164.989 103.982 164.989 106.226V126.614C164.989 128.858 163.17 130.677 160.926 130.677H140.538C138.294 130.677 136.475 128.858 136.475 126.614V106.226C136.475 103.982 138.294 102.163 140.538 102.163Z" stroke="#F46E00" stroke-width="2.95484"/>
<path opacity="0.7" d="M38.8726 94.7764L38.8817 94.7765H38.8909H61.0523C62.2474 94.7765 63.3935 95.2512 64.2386 96.0963C65.0836 96.9414 65.5584 98.0875 65.5584 99.2826V121.444C65.5584 122.639 65.0836 123.785 64.2386 124.63C63.3935 125.475 62.2474 125.95 61.0523 125.95H38.8909C37.6762 125.95 36.5113 125.468 35.6524 124.609C34.7934 123.75 34.3109 122.585 34.3109 121.37V99.2184C34.3192 98.6295 34.4429 98.048 34.675 97.5066C34.9082 96.9627 35.2463 96.47 35.6699 96.0567C36.0935 95.6435 36.5943 95.3177 37.1439 95.098C37.6934 94.8783 38.2808 94.769 38.8726 94.7764Z" stroke="#F46E00" stroke-width="2.95484"/>
</g>
</svg>
