<svg width="133" height="242" viewBox="0 0 133 242" fill="none" xmlns="http://www.w3.org/2000/svg">
<ellipse opacity="0.02" cx="123" cy="231.5" rx="50" ry="50.5" fill="white"/>
<ellipse opacity="0.02" cx="123" cy="231.5" rx="33" ry="33.5" fill="white"/>
<circle opacity="0.02" cx="123" cy="232" r="18" fill="white"/>
<g opacity="0.3">
<path opacity="0.7" d="M66.2567 70.5269L51.8502 61.5911C50.2895 60.6231 48.2396 61.1035 47.2715 62.6642L38.3357 77.0707C37.3677 78.6314 37.8481 80.6814 39.4088 81.6494L53.8153 90.5852C55.376 91.5532 57.426 91.0728 58.394 89.5121L67.3298 75.1056C68.2979 73.5449 67.8174 71.495 66.2567 70.5269Z" stroke="#F46E00" stroke-width="2.60811"/>
<path opacity="0.2" d="M91.5389 35.9524L73.7524 24.9202C71.6715 23.6294 68.9382 24.27 67.6475 26.351L56.6152 44.1374C55.3245 46.2184 55.9651 48.9516 58.046 50.2424L75.8325 61.2746C77.9134 62.5653 80.6467 61.9247 81.9374 59.8438L92.9697 42.0573C94.2604 39.9764 93.6198 37.2431 91.5389 35.9524Z" stroke="#F46E00" stroke-width="2.60811"/>
<path opacity="0.9" d="M109.667 137.68L109.666 137.68L89.6636 125.273C88.4879 124.544 87.0708 124.312 85.7238 124.627C84.3769 124.943 83.2105 125.781 82.4813 126.956L70.0743 146.959C69.3451 148.135 69.1128 149.552 69.4285 150.899C69.7442 152.246 70.582 153.412 71.7576 154.142L91.7605 166.549C92.9361 167.278 94.3533 167.51 95.7002 167.194C97.0472 166.879 98.2135 166.041 98.9427 164.865L111.38 144.813C112.091 143.639 112.31 142.232 111.99 140.897C111.669 139.561 110.835 138.405 109.667 137.68Z" stroke="#F46E00" stroke-width="2.60811"/>
<path opacity="0.5" d="M126.332 110.884L115.472 104.148C114.462 103.521 113.136 103.832 112.509 104.842L105.773 115.702C105.147 116.712 105.458 118.039 106.468 118.665L117.328 125.401C118.338 126.028 119.664 125.717 120.291 124.707L127.027 113.847C127.653 112.837 127.342 111.51 126.332 110.884Z" stroke="#F46E00" stroke-width="2.60811"/>
<path opacity="0.5" d="M45.7725 68.7169L45.7615 68.7104L45.7507 68.7037L34.6687 61.83C34.1838 61.5292 33.5992 61.4334 33.0436 61.5636C32.488 61.6938 32.0069 62.0394 31.7061 62.5244L24.8324 73.6063C24.5316 74.0912 24.4358 74.6758 24.566 75.2315C24.6962 75.7871 25.0418 76.2682 25.5267 76.569L36.6087 83.4427C37.1083 83.7526 37.7106 83.8513 38.2831 83.7172C38.8555 83.583 39.3512 83.2269 39.6611 82.7273L46.4317 71.8116L46.4447 71.7905L46.4586 71.77C46.6223 71.5271 46.7348 71.2533 46.7889 70.9653C46.8431 70.6774 46.838 70.3814 46.7737 70.0956C46.7095 69.8098 46.5876 69.54 46.4154 69.3029C46.2432 69.0659 46.0244 68.8665 45.7725 68.7169Z" stroke="#F46E00" stroke-width="2.60811"/>
<path opacity="0.3" d="M115.515 68.5663L100.997 59.5618C99.4062 58.5747 97.316 59.0646 96.329 60.6559L87.3245 75.1732C86.3375 76.7645 86.8273 78.8547 88.4186 79.8417L102.936 88.8462C104.527 89.8332 106.617 89.3434 107.604 87.7521L116.609 73.2347C117.596 71.6434 117.106 69.5533 115.515 68.5663Z" stroke="#F46E00" stroke-width="2.60811"/>
<path opacity="0.4" d="M114.865 30.0118L101.955 22.004C100.639 21.1878 98.9103 21.5929 98.0941 22.9088L90.0863 35.8192C89.2701 37.1351 89.6752 38.8635 90.9911 39.6797L103.902 47.6875C105.217 48.5037 106.946 48.0986 107.762 46.7827L115.77 33.8723C116.586 32.5564 116.181 30.828 114.865 30.0118Z" stroke="#F46E00" stroke-width="2.60811"/>
<path opacity="0.4" d="M77.2748 111.274L61.9818 101.789C60.2987 100.745 58.0879 101.263 57.044 102.946L47.5583 118.239C46.5143 119.922 47.0325 122.133 48.7156 123.177L64.0086 132.662C65.6917 133.706 67.9024 133.188 68.9464 131.505L78.4321 116.212C79.4761 114.529 78.9579 112.318 77.2748 111.274Z" stroke="#F46E00" stroke-width="2.60811"/>
<path opacity="0.7" d="M156.969 153.033L156.962 153.029L156.955 153.025L140.332 142.714C139.436 142.158 138.355 141.981 137.328 142.222C136.301 142.462 135.412 143.101 134.856 143.998L124.545 160.621C123.989 161.517 123.812 162.598 124.053 163.625C124.294 164.652 124.933 165.541 125.829 166.097L142.452 176.408C143.363 176.973 144.461 177.153 145.505 176.908C146.549 176.663 147.453 176.014 148.018 175.103L158.324 158.487C158.592 158.042 158.77 157.548 158.847 157.034C158.926 156.518 158.901 155.991 158.776 155.484C158.65 154.977 158.426 154.499 158.116 154.079C157.806 153.658 157.416 153.303 156.969 153.033Z" stroke="#F46E00" stroke-width="2.60811"/>
</g>
</svg>
