<svg width="650" height="841" viewBox="0 0 650 841" fill="none" xmlns="http://www.w3.org/2000/svg">
<g opacity="0.2">
<path opacity="0.7" d="M83.7853 594.769L99.4147 573.773C101.108 571.499 104.324 571.027 106.599 572.72L127.595 588.35C129.869 590.043 130.34 593.259 128.647 595.534L113.018 616.53C111.325 618.804 108.108 619.276 105.834 617.582L84.8379 601.953C82.5634 600.26 82.0921 597.043 83.7853 594.769Z" stroke="#F46E00" stroke-width="4.02683"/>
<path opacity="0.2" d="M27.8859 559.433L47.1822 533.511C49.4398 530.478 53.7284 529.85 56.7611 532.107L82.6828 551.404C85.7155 553.661 86.3439 557.95 84.0863 560.983L64.79 586.904C62.5324 589.937 58.2438 590.565 55.2111 588.308L29.2894 569.012C26.2567 566.754 25.6283 562.465 27.8859 559.433Z" stroke="#F46E00" stroke-width="4.02683"/>
<path opacity="0.9" d="M59.4806 715.811L59.4806 715.811L81.1814 686.659C82.4569 684.946 84.3607 683.81 86.4741 683.5C88.5875 683.19 90.7373 683.733 92.4507 685.008L121.603 706.709C123.316 707.985 124.452 709.888 124.762 712.002C125.072 714.115 124.529 716.265 123.254 717.978L101.553 747.13C100.277 748.844 98.3736 749.98 96.2602 750.29L96.5521 752.282L96.2602 750.29C94.1468 750.599 91.997 750.057 90.2836 748.781L61.0596 727.027C59.3743 725.743 58.2628 723.846 57.9662 721.748C57.6691 719.647 58.2133 717.514 59.4806 715.811Z" stroke="#F46E00" stroke-width="4.02683"/>
<path opacity="0.5" d="M20.3626 686.766L32.1447 670.938C33.2403 669.467 35.3216 669.162 36.7933 670.257L52.6209 682.039C54.0927 683.135 54.3976 685.216 53.302 686.688L41.5199 702.515C40.4243 703.987 38.343 704.292 36.8713 703.197L21.0437 691.414C19.5719 690.319 19.267 688.238 20.3626 686.766Z" stroke="#F46E00" stroke-width="4.02683"/>
<path opacity="0.5" d="M112.181 580.564L112.193 580.549L112.205 580.533L124.227 564.382C124.753 563.676 125.539 563.207 126.41 563.079C127.282 562.951 128.169 563.175 128.876 563.701L145.026 575.724C145.733 576.25 146.202 577.035 146.33 577.907C146.457 578.779 146.234 579.666 145.707 580.372L133.685 596.523C133.143 597.251 132.334 597.734 131.435 597.866C130.537 597.997 129.624 597.767 128.895 597.225L112.987 585.383L112.956 585.36L112.925 585.338C112.552 585.082 112.235 584.752 111.995 584.37C111.754 583.987 111.593 583.559 111.524 583.112C111.454 582.665 111.476 582.208 111.589 581.77C111.702 581.332 111.904 580.922 112.181 580.564Z" stroke="#F46E00" stroke-width="4.02683"/>
<path opacity="0.3" d="M11.9261 619.858L27.6757 598.7C29.4021 596.381 32.6816 595.901 35.0008 597.627L56.158 613.377C58.4772 615.103 58.9577 618.383 57.2313 620.702L41.4817 641.859C39.7553 644.178 36.4758 644.659 34.1567 642.932L12.9994 627.183C10.6802 625.456 10.1997 622.177 11.9261 619.858Z" stroke="#F46E00" stroke-width="4.02683"/>
<path opacity="0.4" d="M-8.98233 564.115L5.024 545.3C6.45158 543.382 9.16351 542.985 11.0812 544.412L29.8967 558.419C31.8144 559.846 32.2118 562.558 30.7842 564.476L16.7779 583.291C15.3503 585.209 12.6384 585.606 10.7206 584.179L-8.09482 570.173C-10.0126 568.745 -10.4099 566.033 -8.98233 564.115Z" stroke="#F46E00" stroke-width="4.02683"/>
<path opacity="0.4" d="M91.0441 659.535L107.635 637.247C109.461 634.794 112.93 634.286 115.383 636.112L137.671 652.703C140.124 654.529 140.632 657.998 138.806 660.451L122.215 682.739C120.389 685.192 116.92 685.7 114.467 683.874L92.1793 667.283C89.7264 665.457 89.2182 661.988 91.0441 659.535Z" stroke="#F46E00" stroke-width="4.02683"/>
<path opacity="0.7" d="M0.238577 764.66L0.246168 764.65L0.253635 764.64L18.2876 740.414C19.2601 739.108 20.7117 738.241 22.3232 738.005C23.9347 737.769 25.5739 738.183 26.8804 739.155L51.1063 757.189C52.4127 758.162 53.2793 759.613 53.5154 761.225C53.7515 762.836 53.3378 764.476 52.3653 765.782L34.3314 790.008C33.3429 791.336 31.8674 792.217 30.2296 792.457C28.5917 792.697 26.9256 792.276 25.5977 791.288L1.38241 773.262C0.745432 772.773 0.210328 772.165 -0.192598 771.471C-0.597446 770.773 -0.860925 770.003 -0.96799 769.203C-1.07505 768.404 -1.0236 767.591 -0.816573 766.812C-0.609546 766.032 -0.251007 765.301 0.238577 764.66Z" stroke="#F46E00" stroke-width="4.02683"/>
</g>
<g filter="url(#filter0_f_2833_9)">
<circle cx="18" cy="588" r="132" fill="#F46E00"/>
</g>
<defs>
<filter id="filter0_f_2833_9" x="-614" y="-44" width="1264" height="1264" filterUnits="userSpaceOnUse" color-interpolation-filters="sRGB">
<feFlood flood-opacity="0" result="BackgroundImageFix"/>
<feBlend mode="normal" in="SourceGraphic" in2="BackgroundImageFix" result="shape"/>
<feGaussianBlur stdDeviation="250" result="effect1_foregroundBlur_2833_9"/>
</filter>
</defs>
</svg>
