<svg width="650" height="841" viewBox="0 0 650 841" fill="none" xmlns="http://www.w3.org/2000/svg">
<g filter="url(#filter0_f_2833_8)">
<circle cx="632" cy="222" r="132" fill="#F46E00"/>
</g>
<g opacity="0.5">
<path opacity="0.7" d="M622.427 48.4971H635.827C637.279 48.4971 638.456 49.6739 638.456 51.1255V64.5254C638.456 65.977 637.279 67.1538 635.827 67.1538H622.427C620.976 67.1538 619.799 65.977 619.799 64.5254V51.1255C619.799 49.6739 620.976 48.4971 622.427 48.4971Z" stroke="#F46E00" stroke-width="2.06152"/>
<path opacity="0.2" d="M619.85 14.7395H636.394C638.329 14.7395 639.898 16.3086 639.898 18.2441V34.7878C639.898 36.7233 638.329 38.2924 636.394 38.2924H619.85C617.915 38.2924 616.345 36.7233 616.345 34.7878V18.2441C616.345 16.3086 617.915 14.7395 619.85 14.7395Z" stroke="#F46E00" stroke-width="2.06152"/>
<path opacity="0.9" d="M565.29 75.5183H565.291H583.896C584.989 75.5183 586.038 75.9527 586.811 76.7259C587.584 77.4991 588.019 78.5478 588.019 79.6413V98.2466C588.019 99.3401 587.584 100.389 586.811 101.162C586.038 101.935 584.989 102.37 583.896 102.37H565.291C564.197 102.37 563.148 101.935 562.375 101.162C561.602 100.389 561.167 99.3401 561.167 98.2466V79.5953C561.18 78.5107 561.619 77.4745 562.39 76.7113C563.162 75.947 564.204 75.5183 565.29 75.5183Z" stroke="#F46E00" stroke-width="2.06152"/>
<path opacity="0.5" d="M565.26 50.5752H575.362C576.301 50.5752 577.062 51.3366 577.062 52.2759V62.3774C577.062 63.3167 576.301 64.0781 575.362 64.0781H565.26C564.321 64.0781 563.559 63.3167 563.559 62.3774V52.2759C563.559 51.3366 564.321 50.5752 565.26 50.5752Z" stroke="#F46E00" stroke-width="2.06152"/>
<path opacity="0.5" d="M636.941 55.8154L636.951 55.8156H636.961H647.268C647.719 55.8156 648.152 55.9948 648.471 56.3137C648.79 56.6327 648.969 57.0653 648.969 57.5163V67.8239C648.969 68.275 648.79 68.7076 648.471 69.0266C648.152 69.3455 647.719 69.5247 647.268 69.5247H636.961C636.496 69.5247 636.05 69.3401 635.722 69.0115C635.393 68.6828 635.209 68.2371 635.209 67.7724V57.6194V57.5999L635.208 57.5803C635.199 57.3489 635.238 57.1181 635.321 56.9022C635.405 56.6862 635.531 56.4895 635.694 56.3243C635.856 56.159 636.05 56.0287 636.265 55.9412C636.479 55.8536 636.709 55.8109 636.941 55.8154Z" stroke="#F46E00" stroke-width="2.06152"/>
<path opacity="0.3" d="M590.157 26.6572H603.66C605.14 26.6572 606.34 27.8571 606.34 29.3372V42.8402C606.34 44.3203 605.14 45.5201 603.66 45.5201H590.157C588.677 45.5201 587.477 44.3203 587.477 42.8402V29.3372C587.477 27.8571 588.677 26.6572 590.157 26.6572Z" stroke="#F46E00" stroke-width="2.06152"/>
<path opacity="0.2" d="M502.216 54.8435H510.411C511.35 54.8435 512.111 55.605 512.111 56.5443V64.7388C512.111 65.6781 511.35 66.4396 510.411 66.4396H502.216C501.277 66.4396 500.515 65.6781 500.515 64.7388V56.5443C500.515 55.605 501.277 54.8435 502.216 54.8435Z" stroke="#F46E00" stroke-width="1.03076"/>
<path opacity="0.4" d="M606.657 1.03076H618.665C619.889 1.03076 620.881 2.02296 620.881 3.24689V15.2552C620.881 16.4792 619.889 17.4714 618.665 17.4714H606.657C605.433 17.4714 604.44 16.4792 604.44 15.2552V3.24689C604.44 2.02296 605.433 1.03076 606.657 1.03076Z" stroke="#F46E00" stroke-width="2.06152"/>
<path opacity="0.4" d="M598.05 71.2765H612.274C613.84 71.2765 615.109 72.5456 615.109 74.1111V88.3356C615.109 89.9011 613.84 91.1702 612.274 91.1702H598.05C596.484 91.1702 595.215 89.9011 595.215 88.3356V74.1111C595.215 72.5456 596.484 71.2765 598.05 71.2765Z" stroke="#F46E00" stroke-width="2.06152"/>
<path opacity="0.7" d="M527.121 66.1231H527.133H542.595C543.429 66.1231 544.228 66.4543 544.818 67.0439C545.407 67.6335 545.739 68.4332 545.739 69.2669V84.7283C545.739 85.5621 545.407 86.3618 544.818 86.9514C544.228 87.5409 543.429 87.8722 542.595 87.8722H527.133C526.286 87.8722 525.473 87.5355 524.874 86.9363C524.275 86.337 523.938 85.5243 523.938 84.6768V69.2222C523.944 68.8113 524.03 68.4056 524.192 68.0279C524.355 67.6484 524.591 67.3047 524.886 67.0163C525.182 66.728 525.531 66.5007 525.914 66.3474C526.298 66.1942 526.708 66.1179 527.121 66.123L527.121 66.1231Z" stroke="#F46E00" stroke-width="2.06152"/>
</g>
<defs>
<filter id="filter0_f_2833_8" x="0" y="-410" width="1264" height="1264" filterUnits="userSpaceOnUse" color-interpolation-filters="sRGB">
<feFlood flood-opacity="0" result="BackgroundImageFix"/>
<feBlend mode="normal" in="SourceGraphic" in2="BackgroundImageFix" result="shape"/>
<feGaussianBlur stdDeviation="250" result="effect1_foregroundBlur_2833_8"/>
</filter>
</defs>
</svg>
