<svg width="70" height="70" viewBox="0 0 70 70" fill="none" xmlns="http://www.w3.org/2000/svg">
<rect width="70" height="70" rx="35" fill="white"/>
<path d="M23.6401 17.1506C23.1803 17.3529 22.8032 17.7852 22.6745 18.245C22.6193 18.4657 22.5825 22.0891 22.5825 28.8945V39.1946L22.8216 39.6728C22.9964 40.0131 23.1711 40.2154 23.447 40.3809L23.8424 40.6108H30.7582C37.4624 40.6108 37.6832 40.6016 38.0234 40.4269C38.4649 40.2062 38.7408 39.8751 38.8603 39.4153C38.9155 39.2038 38.9431 37.9347 38.9339 36.1965L38.9063 33.318L38.2166 33.1433C37.2233 32.8858 36.5796 32.5639 36.0646 32.0765C35.6139 31.6351 35.0897 30.7062 35.0897 30.3292C35.0897 30.0809 35.053 30.0717 34.8139 30.3108C34.6391 30.4855 34.5104 30.4947 30.7674 30.4947C27.0244 30.4947 26.8957 30.4855 26.7209 30.3108C26.6198 30.2096 26.537 30.0441 26.537 29.9429C26.537 29.8418 26.6198 29.6762 26.7209 29.5751C26.8957 29.4003 27.0244 29.3911 30.749 29.3911C33.9678 29.3911 34.6207 29.4095 34.7771 29.5291C34.9702 29.6578 34.9794 29.6486 35.0254 29.1888C35.1449 28.2416 35.7335 27.4139 36.6256 26.9632C37.0302 26.7609 37.9958 26.5402 38.52 26.5402H38.9523V22.4662V18.3921L38.7132 17.9231C38.5292 17.5368 38.3913 17.3989 38.005 17.215L37.536 16.9759H30.7766C24.4126 16.9759 23.9896 16.9943 23.6401 17.1506ZM34.8139 20.5625C34.915 20.6637 34.9978 20.8292 34.9978 20.9304C34.9978 21.0315 34.915 21.1971 34.8139 21.2982C34.6391 21.4729 34.5104 21.4821 30.7674 21.4821C27.0244 21.4821 26.8957 21.4729 26.7209 21.2982C26.6198 21.1971 26.537 21.0315 26.537 20.9304C26.537 20.8292 26.6198 20.6637 26.7209 20.5625C26.8957 20.3878 27.0244 20.3786 30.7674 20.3786C34.5104 20.3786 34.6391 20.3878 34.8139 20.5625ZM34.8139 22.7696C35.0438 23.1191 35.0346 23.349 34.7771 23.5697L34.5196 23.7905L30.703 23.7629L26.8865 23.7353L26.7117 23.5146C26.4818 23.2295 26.491 23.0823 26.7669 22.8064L26.9968 22.5765L30.8594 22.6041C34.1793 22.6317 34.7403 22.6501 34.8139 22.7696ZM34.8139 25.0688C34.915 25.1699 34.9978 25.3355 34.9978 25.4366C34.9978 25.5378 34.915 25.7033 34.8139 25.8045C34.6391 25.9792 34.5104 25.9884 30.7674 25.9884C27.0244 25.9884 26.8957 25.9792 26.7209 25.8045C26.6198 25.7033 26.537 25.5378 26.537 25.4366C26.537 25.3355 26.6198 25.1699 26.7209 25.0688C26.8957 24.894 27.0244 24.8848 30.7674 24.8848C34.5104 24.8848 34.6391 24.894 34.8139 25.0688ZM34.8506 27.3219C35.053 27.5794 35.0346 27.8645 34.8047 28.0668C34.6207 28.2324 34.4184 28.2416 30.749 28.2416H26.8865L26.7117 28.0208C26.4818 27.7358 26.491 27.5886 26.7669 27.3127L26.9968 27.0828L30.8502 27.1104C34.5931 27.138 34.7219 27.1472 34.8506 27.3219ZM34.869 31.819C35.053 32.0765 35.0254 32.3708 34.8047 32.5731C34.6207 32.7386 34.4184 32.7478 30.749 32.7478H26.8865L26.7117 32.5271C26.4818 32.242 26.491 32.0949 26.7669 31.819L26.9968 31.5891L30.8686 31.6167C34.5747 31.6443 34.7403 31.6535 34.869 31.819ZM34.8506 34.0997C35.0438 34.3756 35.0346 34.5963 34.8139 34.8171C34.6391 34.9918 34.5104 35.001 30.7674 35.001C27.0244 35.001 26.8957 34.9918 26.7209 34.8171C26.6198 34.7159 26.537 34.5504 26.537 34.4492C26.537 34.348 26.6198 34.1825 26.7209 34.0813C26.8957 33.9066 27.0244 33.8974 30.8042 33.8974H34.7127L34.8506 34.0997ZM34.8139 36.2885C35.0346 36.5092 35.0438 36.7299 34.8506 37.0058L34.7127 37.2081H30.7674H26.8221L26.6842 37.0058C26.4726 36.7115 26.5002 36.5092 26.7761 36.2977C27.0152 36.1138 27.1164 36.1046 30.8226 36.1046C34.5104 36.1046 34.6391 36.1138 34.8139 36.2885Z" fill="#F46E00"/>
<path d="M44.7925 21.7673C44.0844 21.9052 42.7417 22.1903 41.8036 22.3834L40.1023 22.7329L40.0747 23.3031C40.0563 23.6158 40.0839 23.8733 40.1207 23.8733C40.1575 23.8733 41.5002 23.5974 43.0912 23.2663C46.08 22.6501 47.0732 22.5306 47.5055 22.7697C47.7262 22.88 49.0413 24.094 51.1381 26.108C51.9934 26.9265 52.1957 27.0828 52.444 27.092C52.821 27.092 53.0969 26.7334 52.9682 26.4115C52.8854 26.2092 48.9677 22.4294 48.3883 21.988C48.0021 21.7029 47.2112 21.4822 46.595 21.4914C46.3099 21.4914 45.5006 21.6201 44.7925 21.7673Z" fill="#F46E00"/>
<path d="M43.9831 25.0871C43.7624 25.2067 43.3302 25.2986 42.76 25.3446C41.6932 25.4366 41.1506 25.6757 40.7092 26.2643L40.3965 26.6781L40.9851 26.7885C41.5185 26.8804 41.592 26.8712 41.8219 26.7149C41.9967 26.5861 42.3277 26.5126 42.9715 26.4482C43.9739 26.3562 44.5901 26.1723 44.9028 25.878C45.2982 25.5102 45.0683 24.8664 44.5533 24.894C44.4337 24.9032 44.1762 24.986 43.9831 25.0871Z" fill="#F46E00"/>
<path d="M45.0405 26.6873C44.875 26.7976 44.8382 26.9172 44.8382 27.331C44.8382 27.9472 44.6635 28.315 44.2956 28.4714C43.9645 28.6001 43.7162 28.5725 42.5207 28.2599C40.4974 27.7173 38.088 27.5701 37.2971 27.9288C36.7821 28.1587 36.5062 28.4162 36.2671 28.876C35.9084 29.575 36.1843 30.6693 36.9016 31.3407C37.4534 31.8741 38.7593 32.2603 40.6998 32.481C41.3803 32.5546 42.2908 32.6834 42.723 32.7569C43.5323 32.9041 47.1189 33.9249 50.4664 34.9641C51.5148 35.286 52.4529 35.5527 52.554 35.5527C52.9955 35.5527 53.1518 34.7618 52.7564 34.5503C52.2322 34.2652 46.2177 32.5086 43.6426 31.8833C42.8058 31.681 41.4631 31.4326 40.6538 31.3315C39.1548 31.1384 38.1799 30.8809 37.7477 30.559C37.6097 30.4578 37.4258 30.2187 37.3339 30.0164C36.9936 29.2623 37.481 28.8392 38.6765 28.8392C39.9181 28.8484 41.3343 29.0783 43.1368 29.5842C43.7162 29.7405 44.1209 29.7865 45.0681 29.7865C46.5395 29.7957 47.1097 29.6117 47.8087 28.9312C48.2777 28.453 48.3421 28.2047 48.057 27.9196C47.7903 27.6529 47.4592 27.6897 47.1649 28.0207C46.8614 28.361 46.5671 28.5266 46.0889 28.6185C45.7578 28.6737 45.7302 28.6645 45.8038 28.5082C45.8498 28.4162 45.8958 28.0207 45.9234 27.6345C45.9602 27.0091 45.9418 26.908 45.767 26.7332C45.5371 26.5033 45.3164 26.4849 45.0405 26.6873Z" fill="#F46E00"/>
<path d="M40.5528 33.8698C40.4608 34.3296 40.2309 34.909 40.1389 34.909C40.0929 34.909 40.0562 35.4332 40.0562 36.0954V37.2817L40.3137 37.3737C41.0862 37.668 41.6379 37.5668 42.1438 37.0334C42.4472 36.7115 42.5024 36.6839 42.8703 36.7299C43.3577 36.7851 43.9739 36.5092 44.3785 36.0494C44.636 35.7551 45.2522 34.6423 45.1878 34.5871C45.1234 34.532 44.1762 34.2469 44.1578 34.2744C44.1394 34.2928 44.0382 34.4768 43.9371 34.6791C43.7256 35.1021 43.3117 35.5528 43.1278 35.5528C42.9714 35.5528 42.9714 35.5344 43.137 34.909C43.3669 34.0629 43.3485 34.0261 42.7507 33.9066C42.4656 33.8514 42.2265 33.8146 42.2173 33.833C42.2081 33.8422 42.153 34.0813 42.0978 34.3572C41.969 35.0194 41.6563 35.847 41.4172 36.1505C41.2793 36.3345 41.1597 36.3804 40.939 36.3621C40.5344 36.3253 40.5252 36.077 40.9206 35.7367C41.2517 35.4424 41.546 34.7986 41.6563 34.1181L41.7207 33.7411L41.2885 33.6767C40.6447 33.5939 40.6171 33.6031 40.5528 33.8698Z" fill="#F46E00"/>
<path d="M38.3088 42.4409C38.0513 42.5237 35.1819 43.7284 35.044 43.8112C34.9244 43.8847 35.7429 44.0871 36.4235 44.1606C36.9201 44.2066 37.0488 44.179 37.757 43.8755C38.3363 43.618 38.7134 43.5169 39.1916 43.4893C40.2584 43.4065 40.286 43.5445 39.3204 44.0135C38.8697 44.2342 38.4927 44.4549 38.4927 44.4917C38.4927 44.5285 38.5847 44.6113 38.7042 44.6664C38.8146 44.7216 39.0169 44.878 39.164 45.0067L39.4123 45.2458L40.7826 44.5745L42.1437 43.8939L42.815 43.9583C43.5783 44.0227 43.9186 44.0963 43.9186 44.1882C43.9186 44.2158 43.0358 44.6848 41.9598 45.2274L40.0009 46.2023L40.0377 46.7908C40.0561 47.1035 40.0929 47.3794 40.1021 47.3978C40.1205 47.4162 41.4264 46.7816 43.0082 45.9815L45.8959 44.5469L46.4017 44.648C47.3765 44.8504 47.6432 45.3746 47.0362 45.8804C46.6776 46.1747 35.4027 51.4718 34.6302 51.7018C34.0232 51.8857 32.8828 51.9041 32.377 51.7385C32.1747 51.6742 30.4733 51.0488 28.5881 50.3499C26.0958 49.4118 25.0658 49.0716 24.7623 49.0716C24.5416 49.0716 23.8703 49.2187 23.2633 49.3934C22.6655 49.5682 22.1413 49.7153 22.1045 49.7153C22.0586 49.7153 22.031 48.5198 22.031 47.0483V44.3905L22.5644 44.225C22.969 44.0963 23.4012 44.0595 24.514 44.0687C26.2246 44.0687 27.4201 44.2618 29.9859 44.9331C33.7657 45.9264 34.998 46.2114 36.0096 46.3586C37.619 46.5793 37.6558 46.5885 37.7478 46.7448C38.0145 47.2231 37.1408 47.7473 35.8165 47.8852C34.2807 48.0507 32.7173 47.8576 30.97 47.269C30.4458 47.0943 29.9399 46.9564 29.8572 46.9564C29.4525 46.9564 29.2502 47.5725 29.5445 47.8944C29.7192 48.0875 31.301 48.6209 32.377 48.8416C33.3794 49.0532 35.136 49.1175 36.1292 48.9888C37.2236 48.8416 37.8489 48.5933 38.3455 48.1059C39.0353 47.4346 39.1272 46.6253 38.5755 45.9999C38.2076 45.5769 37.7662 45.4206 36.6534 45.301C35.5406 45.1906 34.8785 45.0435 31.4574 44.1514C28.5605 43.3881 27.4661 43.149 26.0866 42.9927C24.9463 42.8639 23.015 42.9283 22.3345 43.1214C21.8746 43.241 21.8378 43.241 21.6907 43.0662C21.332 42.68 21.0929 42.634 19.4927 42.634C17.7362 42.634 17.4879 42.7168 17.1476 43.3789C16.9729 43.7284 16.9637 43.8939 16.9913 47.4898L17.0189 51.2327L17.2396 51.5454C17.6167 52.0696 18.0305 52.1984 19.4559 52.1984C20.1365 52.1984 20.8538 52.1524 21.0377 52.1064C21.4056 52.0052 21.9022 51.4994 21.9942 51.1408C22.0218 51.012 22.0586 50.9109 22.0678 50.9109C22.0678 50.9109 22.6563 50.7453 23.3645 50.543C24.0726 50.3407 24.7071 50.1751 24.7807 50.1751C24.8451 50.1751 26.4637 50.7545 28.3673 51.4718C30.271 52.1892 32.0919 52.8237 32.423 52.8973C33.9496 53.2192 34.529 53.0628 38.1524 51.3799C45.2613 48.0783 47.4317 47.0391 47.7352 46.8184C48.103 46.5333 48.5169 45.7516 48.5169 45.3562C48.5077 44.9883 48.2318 44.3905 47.9559 44.133C47.5236 43.7376 46.8707 43.5261 45.9418 43.4893C45.3073 43.4617 44.9762 43.3973 44.7279 43.2686C44.1853 42.9835 43.1461 42.8087 42.1253 42.8271C41.316 42.8455 41.1597 42.8179 40.7918 42.634C40.4515 42.4501 40.2124 42.4133 39.4583 42.3857C38.9525 42.3765 38.4375 42.3949 38.3088 42.4409Z" fill="#F46E00"/>
</svg>
