<svg width="513" height="513" viewBox="0 0 513 513" fill="none" xmlns="http://www.w3.org/2000/svg">
<g filter="url(#filter0_f_2832_4)">
<circle cx="424.471" cy="88.7405" r="88.5285" transform="rotate(-90 424.471 88.7405)" fill="#F46E00"/>
</g>
<g opacity="0.3">
<path opacity="0.7" d="M444.213 34.888L444.213 18.1297C444.213 16.3142 445.684 14.8425 447.5 14.8425L464.258 14.8425C466.074 14.8425 467.545 16.3142 467.545 18.1297L467.545 34.888C467.545 36.7035 466.074 38.1752 464.258 38.1753L447.5 38.1753C445.684 38.1753 444.213 36.7035 444.213 34.888Z" stroke="#F46E00" stroke-width="2.57821"/>
<path opacity="0.2" d="M401.994 38.1111L401.994 17.421C401.994 15.0004 403.957 13.038 406.377 13.038L427.067 13.038C429.488 13.038 431.45 15.0004 431.45 17.421L431.45 38.1111C431.45 40.5318 429.488 42.4941 427.067 42.4941L406.377 42.4941C403.957 42.4941 401.994 40.5318 401.994 38.1111Z" stroke="#F46E00" stroke-width="2.57821"/>
<path opacity="0.9" d="M478.006 106.345L478.006 106.345L478.006 83.0767C478.006 81.7091 478.55 80.3975 479.517 79.4305C480.484 78.4635 481.795 77.9203 483.163 77.9203L506.431 77.9203C507.799 77.9203 509.11 78.4635 510.077 79.4305C511.044 80.3975 511.588 81.7091 511.588 83.0767L511.588 106.345C511.588 107.713 511.044 109.024 510.077 109.991L510.989 110.903L510.077 109.991C509.11 110.958 507.799 111.501 506.431 111.501L483.105 111.501C481.749 111.486 480.453 110.937 479.498 109.973C478.543 109.008 478.006 107.704 478.006 106.345Z" stroke="#F46E00" stroke-width="2.57821"/>
<path opacity="0.5" d="M446.812 106.384L446.812 93.7504C446.812 92.5757 447.764 91.6234 448.939 91.6234L461.572 91.6234C462.747 91.6234 463.699 92.5757 463.699 93.7504L463.699 106.384C463.699 107.558 462.747 108.511 461.572 108.511L448.939 108.511C447.764 108.511 446.812 107.558 446.812 106.384Z" stroke="#F46E00" stroke-width="2.57821"/>
<path opacity="0.5" d="M453.365 16.737L453.366 16.7244L453.366 16.7118L453.366 3.82073C453.366 3.25662 453.59 2.71562 453.989 2.31672C454.388 1.91782 454.929 1.69372 455.493 1.69372L468.384 1.69372C468.948 1.69372 469.489 1.91782 469.888 2.31672C470.287 2.71562 470.511 3.25662 470.511 3.82073L470.511 16.7118C470.511 17.293 470.28 17.8504 469.869 18.2614C469.458 18.6724 468.901 18.9033 468.319 18.9033L455.622 18.9033L455.597 18.9033L455.573 18.9042C455.283 18.9152 454.995 18.8669 454.725 18.7624C454.454 18.6579 454.209 18.4994 454.002 18.2965C453.795 18.0936 453.632 17.8506 453.523 17.5824C453.413 17.3143 453.36 17.0266 453.365 16.737Z" stroke="#F46E00" stroke-width="2.57821"/>
<path opacity="0.3" d="M416.899 75.2464L416.899 58.3592C416.899 56.5081 418.4 55.0075 420.251 55.0075L437.138 55.0075C438.989 55.0075 440.49 56.5081 440.49 58.3592L440.49 75.2464C440.49 77.0975 438.989 78.5981 437.138 78.5981L420.251 78.5981C418.4 78.5981 416.899 77.0975 416.899 75.2464Z" stroke="#F46E00" stroke-width="2.57821"/>
<path opacity="0.2" d="M452.15 185.228L452.15 174.98C452.15 173.805 453.102 172.853 454.277 172.853L464.525 172.853C465.7 172.853 466.652 173.805 466.652 174.98L466.652 185.228C466.652 186.403 465.7 187.355 464.525 187.355L454.277 187.355C453.102 187.355 452.15 186.403 452.15 185.228Z" stroke="#F46E00" stroke-width="1.2891"/>
<path opacity="0.4" d="M384.85 54.6112L384.85 39.5931C384.85 38.0624 386.091 36.8216 387.621 36.8216L402.639 36.8215C404.17 36.8215 405.411 38.0624 405.411 39.5931L405.411 54.6112C405.411 56.1419 404.17 57.3828 402.639 57.3828L387.621 57.3828C386.091 57.3828 384.85 56.1419 384.85 54.6112Z" stroke="#F46E00" stroke-width="2.57821"/>
<path opacity="0.4" d="M472.702 65.3753L472.702 47.5857C472.702 45.6278 474.289 44.0406 476.247 44.0406L494.036 44.0406C495.994 44.0406 497.581 45.6278 497.581 47.5857L497.581 65.3753C497.581 67.3332 495.994 68.9204 494.036 68.9204L476.247 68.9204C474.289 68.9204 472.702 67.3332 472.702 65.3753Z" stroke="#F46E00" stroke-width="2.57821"/>
<path opacity="0.7" d="M466.256 154.082L466.256 154.074L466.256 154.066L466.256 134.73C466.256 133.687 466.671 132.687 467.408 131.949C468.145 131.212 469.145 130.798 470.188 130.798L489.525 130.798C490.567 130.798 491.567 131.212 492.305 131.949C493.042 132.687 493.456 133.687 493.456 134.73L493.456 154.066C493.456 155.126 493.035 156.143 492.286 156.892C491.537 157.641 490.52 158.062 489.46 158.062L470.132 158.062C469.618 158.055 469.111 157.947 468.638 157.745C468.164 157.541 467.734 157.246 467.373 156.877C467.013 156.507 466.729 156.07 466.537 155.591C466.345 155.111 466.25 154.599 466.256 154.082Z" stroke="#F46E00" stroke-width="2.57821"/>
</g>
<defs>
<filter id="filter0_f_2832_4" x="0.607697" y="-335.123" width="847.728" height="847.728" filterUnits="userSpaceOnUse" color-interpolation-filters="sRGB">
<feFlood flood-opacity="0" result="BackgroundImageFix"/>
<feBlend mode="normal" in="SourceGraphic" in2="BackgroundImageFix" result="shape"/>
<feGaussianBlur stdDeviation="167.668" result="effect1_foregroundBlur_2832_4"/>
</filter>
</defs>
</svg>
