<svg width="764" height="764" viewBox="0 0 764 764" fill="none" xmlns="http://www.w3.org/2000/svg">
<g filter="url(#filter0_f_2832_5)">
<circle cx="132" cy="132" r="132" transform="matrix(-1 0 0 1 264 500)" fill="#F46E00"/>
</g>
<g opacity="0.3">
<path opacity="0.7" d="M51.7034 661.435H26.7159C24.009 661.435 21.8146 663.629 21.8146 666.336L21.8146 691.324C21.8146 694.031 24.009 696.225 26.7159 696.225H51.7034C54.4104 696.225 56.6048 694.031 56.6048 691.324L56.6048 666.336C56.6048 663.629 54.4104 661.435 51.7034 661.435Z" stroke="#F46E00" stroke-width="3.84423"/>
<path opacity="0.2" d="M56.5091 598.486L25.6592 598.486C22.0499 598.486 19.124 601.411 19.124 605.021L19.124 635.871C19.124 639.48 22.0499 642.406 25.6592 642.406L56.5091 642.406C60.1184 642.406 63.0443 639.48 63.0443 635.871L63.0443 605.021C63.0443 601.411 60.1184 598.486 56.5091 598.486Z" stroke="#F46E00" stroke-width="3.84423"/>
<path opacity="0.9" d="M158.249 711.823H158.249L123.555 711.823C121.516 711.823 119.561 712.633 118.119 714.075C116.677 715.517 115.867 717.472 115.867 719.511L115.867 754.206C115.867 756.245 116.677 758.2 118.119 759.642C119.561 761.084 121.516 761.894 123.555 761.894L158.249 761.894C160.288 761.894 162.244 761.084 163.686 759.642C165.128 758.2 165.938 756.245 165.938 754.206L165.938 719.425C165.915 717.403 165.097 715.471 163.659 714.048C162.219 712.622 160.275 711.823 158.249 711.823Z" stroke="#F46E00" stroke-width="3.84423"/>
<path opacity="0.5" d="M158.306 665.31H139.469C137.718 665.31 136.298 666.73 136.298 668.482L136.298 687.318C136.298 689.07 137.718 690.49 139.469 690.49H158.306C160.058 690.49 161.478 689.07 161.478 687.318L161.478 668.482C161.478 666.73 160.058 665.31 158.306 665.31Z" stroke="#F46E00" stroke-width="3.84423"/>
<path opacity="0.5" d="M24.6393 675.082L24.6204 675.082H24.6016H5.38047C4.53935 675.082 3.7327 675.416 3.13792 676.011C2.54314 676.606 2.209 677.413 2.209 678.254L2.209 697.475C2.209 698.316 2.54314 699.123 3.13792 699.717C3.7327 700.312 4.53935 700.646 5.38047 700.646H24.6016C25.4682 700.646 26.2994 700.302 26.9122 699.689C27.5249 699.077 27.8692 698.245 27.8692 697.379L27.8692 678.446V678.41L27.8706 678.373C27.887 677.942 27.815 677.511 27.6592 677.108C27.5034 676.706 27.267 676.339 26.9645 676.031C26.6619 675.723 26.2996 675.48 25.8998 675.316C25.4999 675.153 25.071 675.073 24.6393 675.082Z" stroke="#F46E00" stroke-width="3.84423"/>
<path opacity="0.3" d="M111.879 620.709H86.6994C83.9393 620.709 81.7019 622.947 81.7019 625.707L81.7019 650.886C81.7019 653.646 83.9393 655.884 86.6994 655.884H111.879C114.639 655.884 116.877 653.646 116.877 650.886L116.877 625.707C116.877 622.947 114.639 620.709 111.879 620.709Z" stroke="#F46E00" stroke-width="3.84423"/>
<path opacity="0.2" d="M275.867 673.27H260.587C258.835 673.27 257.415 674.69 257.415 676.441L257.415 691.722C257.415 693.474 258.835 694.893 260.587 694.893H275.867C277.619 694.893 279.039 693.474 279.039 691.722L279.039 676.441C279.039 674.69 277.619 673.27 275.867 673.27Z" stroke="#F46E00" stroke-width="1.92211"/>
<path opacity="0.4" d="M81.1116 572.922H58.719C56.4367 572.922 54.5864 574.772 54.5864 577.055L54.5864 599.447C54.5864 601.73 56.4366 603.58 58.719 603.58H81.1116C83.3939 603.58 85.2441 601.73 85.2441 599.447L85.2441 577.055C85.2441 574.772 83.3939 572.922 81.1116 572.922Z" stroke="#F46E00" stroke-width="3.84423"/>
<path opacity="0.4" d="M97.1618 703.913L70.6366 703.913C67.7173 703.913 65.3508 706.28 65.3508 709.199L65.3508 735.724C65.3508 738.644 67.7173 741.01 70.6366 741.01H97.1618C100.081 741.01 102.448 738.644 102.448 735.724L102.448 709.199C102.448 706.28 100.081 703.913 97.1618 703.913Z" stroke="#F46E00" stroke-width="3.84423"/>
<path opacity="0.7" d="M229.427 694.303L229.415 694.303H229.403L200.572 694.303C199.017 694.303 197.526 694.921 196.426 696.02C195.327 697.12 194.709 698.611 194.709 700.166L194.709 728.997C194.709 730.552 195.327 732.043 196.426 733.143C197.526 734.242 199.017 734.86 200.572 734.86L229.403 734.86C230.984 734.86 232.499 734.232 233.617 733.114C234.734 731.997 235.362 730.481 235.362 728.901L235.362 700.082C235.351 699.316 235.19 698.559 234.888 697.855C234.585 697.147 234.145 696.506 233.594 695.969C233.043 695.431 232.391 695.007 231.676 694.721C230.961 694.436 230.197 694.293 229.427 694.303Z" stroke="#F46E00" stroke-width="3.84423"/>
</g>
<defs>
<filter id="filter0_f_2832_5" x="-500" y="0" width="1264" height="1264" filterUnits="userSpaceOnUse" color-interpolation-filters="sRGB">
<feFlood flood-opacity="0" result="BackgroundImageFix"/>
<feBlend mode="normal" in="SourceGraphic" in2="BackgroundImageFix" result="shape"/>
<feGaussianBlur stdDeviation="250" result="effect1_foregroundBlur_2832_5"/>
</filter>
</defs>
</svg>
